<svg width="531" height="407" viewBox="0 0 531 407" fill="none" xmlns="http://www.w3.org/2000/svg">
<path d="M16 452.069L225.005 71.8401C225.532 70.8811 226.539 70.2852 227.634 70.2852H253.233C255.036 70.2852 256.432 71.8648 256.21 73.6545L208.649 457.095C208.251 460.305 212.514 461.786 214.192 459.02L471.134 35.4441C471.678 34.5475 472.65 34 473.699 34H498.678C500.708 34 502.152 35.9739 501.537 37.9085L369.431 453.67C368.403 456.905 372.693 459.091 374.706 456.358L594.186 158.275C594.752 157.508 595.648 157.054 596.602 157.054H628.278C630.244 157.054 631.679 158.913 631.18 160.815L555.835 448.308C555.336 450.21 556.771 452.069 558.737 452.069H593.778C594.612 452.069 595.408 451.721 595.976 451.11L801 230.413" stroke="#3A2B8D" stroke-width="67" stroke-linecap="round"/>
</svg>
